<?xml version="1.0" encoding="UTF-8" standalone="no"?>
<!DOCTYPE svg PUBLIC "-//W3C//DTD SVG 1.1//EN" "http://www.w3.org/Graphics/SVG/1.1/DTD/svg11.dtd">
<svg width="100%" height="100%" viewBox="0 0 3655 657" version="1.1" xmlns="http://www.w3.org/2000/svg" xmlns:xlink="http://www.w3.org/1999/xlink" xml:space="preserve" xmlns:serif="http://www.serif.com/" style="fill-rule:evenodd;clip-rule:evenodd;stroke-linejoin:round;stroke-miterlimit:1.41421;">
    <g transform="matrix(1,0,0,1,-30495.7,-2046.82)">
        <g transform="matrix(4.16667,0,0,4.16667,27000,0)">
            <g transform="matrix(261.211,0,0,-261.211,838.965,570.457)">
                <path d="M0,-0.2L0,0.2L0.1,0.3L0.2,0.3L0.2,0.1L0.4,0.3L0.6,0.3L0.6,0.1L0.8,0.3L1,0.3L1,-0.2L0.9,-0.3L0.8,-0.3L0.8,-0.1L0.6,-0.3L0.4,-0.3L0.4,-0.1L0.2,-0.3L0,-0.3L0,-0.2Z" style="fill:url(#_Linear1);fill-rule:nonzero;"/>
            </g>
        </g>
        <g transform="matrix(4.16667,0,0,4.16667,27000,0)">
            <g transform="matrix(1,0,0,1,1228.52,537.665)">
                <path d="M0,-6.832L0,24.822L-15.13,24.822L-15.13,-4.115C-15.13,-12.377 -18.134,-16.669 -24.68,-16.669C-31.225,-16.669 -35.626,-11.84 -35.626,-3.471L-35.626,24.822L-50.755,24.822L-50.755,-4.115C-50.755,-12.377 -53.76,-16.669 -60.413,-16.669C-66.958,-16.669 -71.787,-11.626 -71.787,-3.363L-71.787,24.822L-86.38,24.822L-86.38,-31.546L-71.787,-31.546L-71.787,-23.465C-68.46,-27.757 -63.631,-31.44 -55.583,-31.546C-48.824,-31.654 -42.493,-28.615 -39.059,-21.641C-35.195,-27.542 -28.758,-31.546 -20.388,-31.546C-9.014,-31.546 0,-24.538 0,-6.832" style="fill-rule:nonzero;"/>
            </g>
        </g>
        <g transform="matrix(4.16667,0,0,4.16667,27000,0)">
            <g transform="matrix(1,0,0,1,1271.52,530.51)">
                <path d="M0,7.513L-11.053,7.513C-17.384,7.513 -21.031,10.088 -21.031,14.701C-21.031,18.565 -17.921,21.032 -12.877,21.032C-4.936,21.032 -0.108,16.096 0,8.585L0,7.513ZM2.253,22.32C-1.611,28.436 -7.19,31.977 -15.775,31.977C-27.684,31.977 -36.269,26.29 -36.269,15.775C-36.269,4.079 -27.47,-2.574 -10.945,-2.574L0,-2.574L0,-5.256C0,-10.193 -3.541,-13.412 -9.873,-13.412C-15.775,-13.412 -19.745,-10.729 -20.388,-6.652L-34.982,-6.652C-33.908,-17.382 -24.037,-24.464 -9.443,-24.464C6.008,-24.464 14.915,-17.596 14.915,-4.398L14.915,31.977L2.186,31.977L2.253,22.32Z" style="fill-rule:nonzero;"/>
            </g>
        </g>
        <g transform="matrix(4.16667,0,0,4.16667,27000,0)">
            <g transform="matrix(1,0,0,1,1300.22,534.837)">
                <path d="M0,-15.95L-9.12,-15.95L-9.12,-28.719L0,-28.719L0,-43.6L15.13,-43.6L15.13,-28.719L27.792,-28.719L27.792,-15.95L15.13,-15.95L15.13,9.408C15.13,13.271 16.632,14.881 20.602,14.881L28.113,14.881L28.113,27.65L15.773,27.65C5.258,27.65 0,22.392 0,11.877L0,-15.95Z" style="fill-rule:nonzero;"/>
            </g>
        </g>
        <g transform="matrix(4.16667,0,0,4.16667,27000,0)">
            <g transform="matrix(1,0,0,1,1389.3,522.462)">
                <path d="M0,8.8L0,40.025L-15.13,40.025L-15.13,10.088C-15.13,1.075 -18.779,-3.969 -26.29,-3.969C-34.016,-3.969 -38.63,1.61 -38.63,11.054L-38.63,40.025L-53.76,40.025L-53.76,-31.225L-38.63,-31.225L-38.63,-9.013C-35.089,-13.305 -30.153,-16.416 -22.32,-16.416C-10.088,-16.416 0,-9.871 0,8.8" style="fill-rule:nonzero;"/>
            </g>
        </g>
        <g transform="matrix(4.16667,0,0,4.16667,27000,0)">
            <g transform="matrix(1,0,0,1,1436.62,540.704)">
                <path d="M0,-12.875C-1.074,-19.636 -5.687,-23.391 -12.555,-23.391C-19.101,-23.391 -24.037,-19.421 -24.895,-12.875L0,-12.875ZM-40.99,-6.33C-40.99,-23.498 -29.724,-34.658 -12.663,-34.658C3.862,-34.658 15.022,-24.357 15.236,-8.154C15.236,-6.544 15.13,-4.721 14.807,-3.003L-25.217,-3.003L-25.217,-2.252C-24.895,5.581 -19.851,10.303 -12.234,10.303C-6.116,10.303 -1.825,7.62 -0.537,2.469L14.378,2.469C12.661,13.2 3.112,21.783 -11.589,21.783C-29.939,21.783 -40.99,10.732 -40.99,-6.33" style="fill-rule:nonzero;"/>
            </g>
        </g>
        <g transform="matrix(4.16667,0,0,4.16667,27000,0)">
            <g transform="matrix(1,0,0,1,1496.44,562.487)">
                <path d="M0,-56.369L14.807,-56.369L14.807,0L0,0L0,-7.297C-3.541,-3.004 -8.37,0 -16.204,0C-27.578,0 -38.093,-5.687 -38.093,-25.216L-38.093,-56.369L-22.963,-56.369L-22.963,-27.256C-22.963,-17.383 -19.745,-12.555 -12.232,-12.555C-4.721,-12.555 0,-18.028 0,-28.221L0,-56.369Z" style="fill-rule:nonzero;"/>
            </g>
        </g>
        <g transform="matrix(4.16667,0,0,4.16667,27000,0)">
            <g transform="matrix(1,0,0,1,1532.81,524.824)">
                <path d="M0,18.67C0.537,23.499 4.721,26.826 12.126,26.826C18.456,26.826 22.32,24.787 22.32,20.924C22.32,16.417 18.564,16.095 9.657,14.915C-3.219,13.413 -13.198,10.516 -13.198,-0.859C-13.198,-11.804 -3.649,-18.993 10.516,-18.886C25.324,-18.886 35.518,-12.341 36.269,-1.073L21.783,-1.073C21.354,-5.473 17.168,-8.155 11.052,-8.155C5.15,-8.155 1.288,-6.009 1.288,-2.468C1.288,1.716 6.01,2.145 13.949,3.111C26.612,4.4 37.127,7.297 37.127,19.744C37.127,30.689 26.826,37.663 12.018,37.663C-3.327,37.663 -13.735,30.475 -14.378,18.67L0,18.67Z" style="fill-rule:nonzero;"/>
            </g>
        </g>
        <g transform="matrix(4.16667,0,0,4.16667,27000,0)">
            <g transform="matrix(1,0,0,1,1490.48,623.723)">
                <path d="M0,-6.832L0,24.822L-15.13,24.822L-15.13,-4.115C-15.13,-12.377 -18.134,-16.669 -24.68,-16.669C-31.225,-16.669 -35.626,-11.84 -35.626,-3.471L-35.626,24.822L-50.755,24.822L-50.755,-4.115C-50.755,-12.377 -53.76,-16.669 -60.413,-16.669C-66.958,-16.669 -71.787,-11.626 -71.787,-3.363L-71.787,24.822L-86.38,24.822L-86.38,-31.546L-71.787,-31.546L-71.787,-23.465C-68.46,-27.757 -63.631,-31.44 -55.583,-31.546C-48.824,-31.654 -42.493,-28.615 -39.059,-21.641C-35.195,-27.542 -28.758,-31.546 -20.388,-31.546C-9.014,-31.546 0,-24.538 0,-6.832" style="fill-rule:nonzero;"/>
            </g>
        </g>
        <g transform="matrix(4.16667,0,0,4.16667,27000,0)">
            <g transform="matrix(1,0,0,1,1240.92,616.641)">
                <path d="M0,7.513L-11.053,7.513C-17.384,7.513 -21.031,10.088 -21.031,14.702C-21.031,18.565 -17.921,21.032 -12.877,21.032C-4.936,21.032 -0.108,16.096 0,8.585L0,7.513ZM2.253,22.32C-1.611,28.436 -7.19,31.977 -15.775,31.977C-27.684,31.977 -36.269,26.29 -36.269,15.775C-36.269,4.079 -27.47,-2.574 -10.945,-2.574L0,-2.574L0,-5.256C0,-10.193 -3.541,-13.412 -9.873,-13.412C-15.775,-13.412 -19.745,-10.729 -20.388,-6.652L-34.982,-6.652C-33.908,-17.382 -24.037,-24.464 -9.443,-24.464C6.008,-24.464 14.915,-17.596 14.915,-4.398L14.915,31.977L2.186,31.977L2.253,22.32Z" style="fill-rule:nonzero;"/>
            </g>
        </g>
        <g transform="matrix(4.16667,0,0,4.16667,27000,0)">
            <g transform="matrix(1,0,0,1,1156.95,592.242)">
                <path d="M0,56.369L-14.807,56.369L-14.807,0L0,0L0,7.297C3.541,3.004 8.37,0 16.203,0C27.578,0 38.093,5.687 38.093,25.216L38.093,56.369L22.963,56.369L22.963,27.256C22.963,17.383 19.745,12.555 12.232,12.555C4.721,12.555 0,18.027 0,28.221L0,56.369Z" style="fill-rule:nonzero;"/>
            </g>
        </g>
        <g transform="matrix(4.16667,0,0,4.16667,27000,0)">
            <g transform="matrix(1,0,0,1,1576,592.249)">
                <path d="M0,56.369L-14.807,56.369L-14.807,0L0,0L0,7.297C3.541,3.004 8.37,0 16.204,0C27.578,0 38.093,5.687 38.093,25.216L38.093,56.369L22.963,56.369L22.963,27.256C22.963,17.383 19.745,12.555 12.232,12.555C4.721,12.555 0,18.027 0,28.221L0,56.369Z" style="fill-rule:nonzero;"/>
            </g>
        </g>
        <g transform="matrix(4.16667,0,0,4.16667,27000,0)">
            <g transform="matrix(1,0,0,1,1275.66,610.955)">
                <path d="M0,18.67C0.537,23.499 4.721,26.826 12.126,26.826C18.456,26.826 22.32,24.788 22.32,20.924C22.32,16.417 18.564,16.095 9.657,14.915C-3.219,13.413 -13.198,10.516 -13.198,-0.859C-13.198,-11.804 -3.649,-18.993 10.516,-18.886C25.324,-18.886 35.518,-12.341 36.269,-1.073L21.783,-1.073C21.354,-5.473 17.168,-8.155 11.052,-8.155C5.15,-8.155 1.288,-6.009 1.288,-2.468C1.288,1.716 6.01,2.145 13.949,3.111C26.612,4.4 37.127,7.297 37.127,19.744C37.127,30.689 26.827,37.663 12.018,37.663C-3.327,37.663 -13.735,30.475 -14.378,18.67L0,18.67Z" style="fill-rule:nonzero;"/>
            </g>
        </g>
        <g transform="matrix(4.16667,0,0,4.16667,27000,0)">
            <g transform="matrix(1,0,0,1,1317.12,620.398)">
                <path d="M0,-0.001C0,-17.061 11.16,-28.221 28.65,-28.221C43.672,-28.221 53.008,-20.067 55.154,-6.975L39.381,-6.975C38.093,-12.448 34.337,-15.881 28.436,-15.881C20.495,-15.881 15.452,-9.336 15.452,-0.001C15.452,9.443 20.495,15.88 28.436,15.88C34.337,15.88 38.307,12.339 39.381,6.76L55.262,6.76C53.116,19.958 43.137,28.22 28.113,28.22C10.623,28.22 0,17.383 0,-0.001" style="fill-rule:nonzero;"/>
            </g>
        </g>
        <g transform="matrix(4.16667,0,0,4.16667,27000,0)">
            <g transform="matrix(1,0,0,1,0,168.414)">
                <rect x="1380.94" y="431.382" width="14.599" height="48.822"/>
            </g>
        </g>
        <g transform="matrix(4.16667,0,0,4.16667,27000,0)">
            <g transform="matrix(1,0,0,1,0,89.617)">
                <rect x="1380.94" y="487.751" width="14.599" height="14.881"/>
            </g>
        </g>
        <g transform="matrix(4.16667,0,0,4.16667,27000,0)">
            <g transform="matrix(1,0,0,1,1538.19,626.835)">
                <path d="M0,-12.875C-1.074,-19.636 -5.687,-23.391 -12.555,-23.391C-19.101,-23.391 -24.037,-19.421 -24.895,-12.875L0,-12.875ZM-40.99,-6.33C-40.99,-23.498 -29.724,-34.658 -12.663,-34.658C3.862,-34.658 15.022,-24.357 15.236,-8.154C15.236,-6.544 15.13,-4.721 14.807,-3.003L-25.217,-3.003L-25.217,-2.252C-24.895,5.581 -19.851,10.303 -12.234,10.303C-6.116,10.303 -1.825,7.62 -0.537,2.469L14.378,2.469C12.661,13.2 3.112,21.783 -11.589,21.783C-29.938,21.783 -40.99,10.732 -40.99,-6.33" style="fill-rule:nonzero;"/>
            </g>
        </g>
        <g transform="matrix(4.16667,0,0,4.16667,27000,0)">
            <g transform="matrix(1,0,0,1,1700.6,620.398)">
                <path d="M0,-0.001C0,-9.336 -5.258,-15.881 -13.735,-15.881C-22.212,-15.881 -27.362,-9.336 -27.362,-0.001C-27.362,9.335 -22.212,15.88 -13.735,15.88C-5.258,15.88 0,9.335 0,-0.001M-42.814,-0.001C-42.814,-16.955 -31.333,-28.221 -13.735,-28.221C3.863,-28.221 15.344,-16.955 15.344,-0.001C15.344,17.06 3.863,28.22 -13.735,28.22C-31.333,28.22 -42.814,16.954 -42.814,-0.001" style="fill-rule:nonzero;"/>
            </g>
        </g>
        <g transform="matrix(4.16667,0,0,4.16667,27000,0)">
            <g transform="matrix(1,0,0,1,1626.59,620.969)">
                <path d="M0,-15.95L-9.12,-15.95L-9.12,-28.719L0,-28.719L0,-43.6L15.13,-43.6L15.13,-28.719L27.792,-28.719L27.792,-15.95L15.13,-15.95L15.13,9.408C15.13,13.271 16.633,14.881 20.603,14.881L28.113,14.881L28.113,27.65L15.773,27.65C5.258,27.65 0,22.391 0,11.877L0,-15.95Z" style="fill-rule:nonzero;"/>
            </g>
        </g>
    </g>
    <defs>
        <linearGradient id="_Linear1" x1="0" y1="0" x2="1" y2="0" gradientUnits="userSpaceOnUse" gradientTransform="matrix(1,0,0,-1,0,4.61696e-07)"><stop offset="0" style="stop-color:rgb(0,20,192);stop-opacity:1"/><stop offset="1" style="stop-color:rgb(127,22,249);stop-opacity:1"/></linearGradient>
    </defs>
</svg>
