<?xml version="1.0" encoding="UTF-8" standalone="no"?>
<!DOCTYPE svg PUBLIC "-//W3C//DTD SVG 1.1//EN" "http://www.w3.org/Graphics/SVG/1.1/DTD/svg11.dtd">
<svg width="100%" height="100%" viewBox="0 0 2443 439" version="1.1" xmlns="http://www.w3.org/2000/svg" xmlns:xlink="http://www.w3.org/1999/xlink" xml:space="preserve" xmlns:serif="http://www.serif.com/" style="fill-rule:evenodd;clip-rule:evenodd;stroke-linejoin:round;stroke-miterlimit:1.41421;">
    <g transform="matrix(1,0,0,1,-13268.5,-8082.22)">
        <g transform="matrix(4.16667,0,0,4.16667,9000,5062.5)">
            <g transform="matrix(174.618,0,0,-174.618,1024.44,777.691)">
                <path d="M0,-0.2L0,0.2L0.1,0.3L0.2,0.3L0.2,0.1L0.4,0.3L0.6,0.3L0.6,0.1L0.8,0.3L1,0.3L1,-0.2L0.9,-0.3L0.8,-0.3L0.8,-0.1L0.6,-0.3L0.4,-0.3L0.4,-0.1L0.2,-0.3L0,-0.3L0,-0.2Z" style="fill:url(#_Linear1);fill-rule:nonzero;"/>
            </g>
        </g>
        <g transform="matrix(4.16667,0,0,4.16667,9000,5062.5)">
            <g transform="matrix(1,0,0,1,1284.86,755.769)">
                <path d="M0,-4.567L0,16.594L-10.114,16.594L-10.114,-2.751C-10.114,-8.274 -12.122,-11.143 -16.499,-11.143C-20.874,-11.143 -23.816,-7.915 -23.816,-2.32L-23.816,16.594L-33.93,16.594L-33.93,-2.751C-33.93,-8.274 -35.938,-11.143 -40.385,-11.143C-44.761,-11.143 -47.989,-7.772 -47.989,-2.248L-47.989,16.594L-57.745,16.594L-57.745,-21.089L-47.989,-21.089L-47.989,-15.686C-45.766,-18.555 -42.537,-21.017 -37.157,-21.089C-32.638,-21.161 -28.406,-19.129 -26.111,-14.467C-23.528,-18.412 -19.225,-21.089 -13.629,-21.089C-6.026,-21.089 0,-16.404 0,-4.567" style="fill:rgb(245,245,245);fill-rule:nonzero;"/>
            </g>
        </g>
        <g transform="matrix(4.16667,0,0,4.16667,9000,5062.5)">
            <g transform="matrix(1,0,0,1,1313.6,750.987)">
                <path d="M0,5.022L-7.389,5.022C-11.621,5.022 -14.059,6.743 -14.059,9.827C-14.059,12.41 -11.98,14.059 -8.608,14.059C-3.3,14.059 -0.072,10.76 0,5.739L0,5.022ZM1.506,14.921C-1.077,19.009 -4.806,21.376 -10.545,21.376C-18.507,21.376 -24.246,17.575 -24.246,10.545C-24.246,2.726 -18.364,-1.721 -7.317,-1.721L0,-1.721L0,-3.514C0,-6.815 -2.367,-8.966 -6.6,-8.966C-10.545,-8.966 -13.199,-7.173 -13.629,-4.447L-23.385,-4.447C-22.668,-11.62 -16.069,-16.354 -6.312,-16.354C4.016,-16.354 9.971,-11.763 9.971,-2.941L9.971,21.376L1.461,21.376L1.506,14.921Z" style="fill:rgb(245,245,245);fill-rule:nonzero;"/>
            </g>
        </g>
        <g transform="matrix(4.16667,0,0,4.16667,9000,5062.5)">
            <g transform="matrix(1,0,0,1,1332.79,753.879)">
                <path d="M0,-10.662L-6.097,-10.662L-6.097,-19.198L0,-19.198L0,-29.146L10.114,-29.146L10.114,-19.198L18.579,-19.198L18.579,-10.662L10.114,-10.662L10.114,6.29C10.114,8.872 11.119,9.948 13.773,9.948L18.794,9.948L18.794,18.484L10.544,18.484C3.515,18.484 0,14.969 0,7.94L0,-10.662Z" style="fill:rgb(245,245,245);fill-rule:nonzero;"/>
            </g>
        </g>
        <g transform="matrix(4.16667,0,0,4.16667,9000,5062.5)">
            <g transform="matrix(1,0,0,1,1392.34,745.607)">
                <path d="M0,5.882L0,26.756L-10.114,26.756L-10.114,6.743C-10.114,0.718 -12.553,-2.654 -17.574,-2.654C-22.74,-2.654 -25.824,1.076 -25.824,7.389L-25.824,26.756L-35.938,26.756L-35.938,-20.874L-25.824,-20.874L-25.824,-6.026C-23.457,-8.895 -20.157,-10.975 -14.921,-10.975C-6.743,-10.975 0,-6.599 0,5.882" style="fill:rgb(245,245,245);fill-rule:nonzero;"/>
            </g>
        </g>
        <g transform="matrix(4.16667,0,0,4.16667,9000,5062.5)">
            <g transform="matrix(1,0,0,1,1423.97,757.801)">
                <path d="M0,-8.607C-0.718,-13.127 -3.802,-15.637 -8.393,-15.637C-12.769,-15.637 -16.069,-12.983 -16.642,-8.607L0,-8.607ZM-27.402,-4.232C-27.402,-15.708 -19.87,-23.169 -8.465,-23.169C2.582,-23.169 10.042,-16.283 10.185,-5.451C10.185,-4.375 10.114,-3.156 9.899,-2.008L-16.858,-2.008L-16.858,-1.506C-16.642,3.731 -13.27,6.887 -8.178,6.887C-4.089,6.887 -1.22,5.094 -0.359,1.651L9.612,1.651C8.464,8.824 2.08,14.562 -7.747,14.562C-20.014,14.562 -27.402,7.174 -27.402,-4.232" style="fill:rgb(245,245,245);fill-rule:nonzero;"/>
            </g>
        </g>
        <g transform="matrix(4.16667,0,0,4.16667,9000,5062.5)">
            <g transform="matrix(1,0,0,1,1463.96,772.363)">
                <path d="M0,-37.682L9.899,-37.682L9.899,0L0,0L0,-4.877C-2.367,-2.008 -5.595,0 -10.832,0C-18.436,0 -25.465,-3.802 -25.465,-16.856L-25.465,-37.682L-15.351,-37.682L-15.351,-18.22C-15.351,-11.62 -13.199,-8.392 -8.177,-8.392C-3.156,-8.392 0,-12.051 0,-18.866L0,-37.682Z" style="fill:rgb(245,245,245);fill-rule:nonzero;"/>
            </g>
        </g>
        <g transform="matrix(4.16667,0,0,4.16667,9000,5062.5)">
            <g transform="matrix(1,0,0,1,1488.27,747.186)">
                <path d="M0,12.48C0.359,15.708 3.156,17.932 8.106,17.932C12.338,17.932 14.921,16.57 14.921,13.987C14.921,10.974 12.41,10.759 6.456,9.969C-2.152,8.966 -8.823,7.029 -8.823,-0.575C-8.823,-7.892 -2.439,-12.697 7.03,-12.626C16.929,-12.626 23.743,-8.251 24.246,-0.718L14.562,-0.718C14.275,-3.66 11.477,-5.452 7.388,-5.452C3.443,-5.452 0.861,-4.018 0.861,-1.651C0.861,1.147 4.017,1.433 9.325,2.079C17.79,2.94 24.819,4.877 24.819,13.198C24.819,20.515 17.933,25.177 8.034,25.177C-2.224,25.177 -9.182,20.371 -9.612,12.48L0,12.48Z" style="fill:rgb(245,245,245);fill-rule:nonzero;"/>
            </g>
        </g>
        <g transform="matrix(4.16667,0,0,4.16667,9000,5062.5)">
            <g transform="matrix(1,0,0,1,1459.97,813.299)">
                <path d="M0,-4.567L0,16.594L-10.114,16.594L-10.114,-2.751C-10.114,-8.274 -12.122,-11.143 -16.499,-11.143C-20.874,-11.143 -23.816,-7.915 -23.816,-2.32L-23.816,16.594L-33.93,16.594L-33.93,-2.751C-33.93,-8.274 -35.938,-11.143 -40.385,-11.143C-44.761,-11.143 -47.989,-7.772 -47.989,-2.248L-47.989,16.594L-57.745,16.594L-57.745,-21.089L-47.989,-21.089L-47.989,-15.686C-45.766,-18.555 -42.537,-21.017 -37.157,-21.089C-32.638,-21.161 -28.406,-19.129 -26.111,-14.467C-23.528,-18.412 -19.225,-21.089 -13.629,-21.089C-6.026,-21.089 0,-16.404 0,-4.567" style="fill:rgb(245,245,245);fill-rule:nonzero;"/>
            </g>
        </g>
        <g transform="matrix(4.16667,0,0,4.16667,9000,5062.5)">
            <g transform="matrix(1,0,0,1,1293.15,808.565)">
                <path d="M0,5.022L-7.389,5.022C-11.621,5.022 -14.059,6.743 -14.059,9.827C-14.059,12.41 -11.98,14.059 -8.608,14.059C-3.299,14.059 -0.072,10.76 0,5.739L0,5.022ZM1.506,14.921C-1.077,19.009 -4.806,21.376 -10.545,21.376C-18.507,21.376 -24.246,17.575 -24.246,10.545C-24.246,2.726 -18.364,-1.721 -7.317,-1.721L0,-1.721L0,-3.514C0,-6.815 -2.367,-8.966 -6.6,-8.966C-10.545,-8.966 -13.199,-7.173 -13.629,-4.447L-23.385,-4.447C-22.668,-11.62 -16.068,-16.354 -6.312,-16.354C4.016,-16.354 9.971,-11.763 9.971,-2.941L9.971,21.376L1.461,21.376L1.506,14.921Z" style="fill:rgb(245,245,245);fill-rule:nonzero;"/>
            </g>
        </g>
        <g transform="matrix(4.16667,0,0,4.16667,9000,5062.5)">
            <g transform="matrix(1,0,0,1,1237.01,792.255)">
                <path d="M0,37.682L-9.899,37.682L-9.899,0L0,0L0,4.877C2.367,2.008 5.595,0 10.832,0C18.436,0 25.465,3.802 25.465,16.856L25.465,37.682L15.351,37.682L15.351,18.22C15.351,11.62 13.199,8.392 8.177,8.392C3.156,8.392 0,12.051 0,18.866L0,37.682Z" style="fill:rgb(245,245,245);fill-rule:nonzero;"/>
            </g>
        </g>
        <g transform="matrix(4.16667,0,0,4.16667,9000,5062.5)">
            <g transform="matrix(1,0,0,1,1517.15,792.259)">
                <path d="M0,37.682L-9.899,37.682L-9.899,0L0,0L0,4.877C2.367,2.008 5.595,0 10.832,0C18.436,0 25.465,3.802 25.465,16.856L25.465,37.682L15.351,37.682L15.351,18.22C15.351,11.62 13.199,8.392 8.177,8.392C3.156,8.392 0,12.051 0,18.866L0,37.682Z" style="fill:rgb(245,245,245);fill-rule:nonzero;"/>
            </g>
        </g>
        <g transform="matrix(4.16667,0,0,4.16667,9000,5062.5)">
            <g transform="matrix(1,0,0,1,1316.37,804.765)">
                <path d="M0,12.48C0.359,15.708 3.156,17.932 8.106,17.932C12.338,17.932 14.921,16.57 14.921,13.987C14.921,10.974 12.41,10.759 6.456,9.969C-2.152,8.966 -8.823,7.029 -8.823,-0.575C-8.823,-7.892 -2.439,-12.697 7.03,-12.626C16.929,-12.626 23.743,-8.251 24.246,-0.718L14.562,-0.718C14.275,-3.66 11.477,-5.452 7.388,-5.452C3.443,-5.452 0.861,-4.018 0.861,-1.651C0.861,1.147 4.017,1.433 9.325,2.079C17.79,2.94 24.819,4.877 24.819,13.198C24.819,20.515 17.933,25.177 8.034,25.177C-2.224,25.177 -9.182,20.371 -9.612,12.48L0,12.48Z" style="fill:rgb(245,245,245);fill-rule:nonzero;"/>
            </g>
        </g>
        <g transform="matrix(4.16667,0,0,4.16667,9000,5062.5)">
            <g transform="matrix(1,0,0,1,1344.08,811.077)">
                <path d="M0,-0.001C0,-11.406 7.46,-18.866 19.153,-18.866C29.195,-18.866 35.436,-13.415 36.87,-4.663L26.326,-4.663C25.465,-8.322 22.954,-10.617 19.009,-10.617C13.7,-10.617 10.33,-6.241 10.33,-0.001C10.33,6.312 13.7,10.615 19.009,10.615C22.954,10.615 25.608,8.248 26.326,4.519L36.943,4.519C35.508,13.342 28.837,18.865 18.794,18.865C7.101,18.865 0,11.62 0,-0.001" style="fill:rgb(245,245,245);fill-rule:nonzero;"/>
            </g>
        </g>
        <g transform="matrix(4.16667,0,0,4.16667,9000,5062.5)">
            <g transform="matrix(1,0,0,1,0,547.245)">
                <rect x="1386.75" y="250.059" width="9.759" height="32.637" style="fill:rgb(245,245,245);"/>
            </g>
        </g>
        <g transform="matrix(4.16667,0,0,4.16667,9000,5062.5)">
            <g transform="matrix(1,0,0,1,0,494.57)">
                <rect x="1386.75" y="287.741" width="9.759" height="9.948" style="fill:rgb(245,245,245);"/>
            </g>
        </g>
        <g transform="matrix(4.16667,0,0,4.16667,9000,5062.5)">
            <g transform="matrix(1,0,0,1,1491.87,815.379)">
                <path d="M0,-8.607C-0.718,-13.127 -3.802,-15.637 -8.393,-15.637C-12.769,-15.637 -16.068,-12.983 -16.642,-8.607L0,-8.607ZM-27.402,-4.232C-27.402,-15.708 -19.87,-23.169 -8.465,-23.169C2.582,-23.169 10.042,-16.283 10.185,-5.451C10.185,-4.375 10.114,-3.156 9.899,-2.008L-16.858,-2.008L-16.858,-1.506C-16.642,3.731 -13.27,6.887 -8.178,6.887C-4.089,6.887 -1.22,5.094 -0.359,1.651L9.612,1.651C8.464,8.824 2.08,14.562 -7.747,14.562C-20.014,14.562 -27.402,7.174 -27.402,-4.232" style="fill:rgb(245,245,245);fill-rule:nonzero;"/>
            </g>
        </g>
        <g transform="matrix(4.16667,0,0,4.16667,9000,5062.5)">
            <g transform="matrix(1,0,0,1,1600.44,811.077)">
                <path d="M0,-0.001C0,-6.241 -3.515,-10.617 -9.182,-10.617C-14.849,-10.617 -18.291,-6.241 -18.291,-0.001C-18.291,6.24 -14.849,10.615 -9.182,10.615C-3.515,10.615 0,6.24 0,-0.001M-28.621,-0.001C-28.621,-11.334 -20.946,-18.866 -9.182,-18.866C2.583,-18.866 10.258,-11.334 10.258,-0.001C10.258,11.405 2.583,18.865 -9.182,18.865C-20.946,18.865 -28.621,11.333 -28.621,-0.001" style="fill:rgb(245,245,245);fill-rule:nonzero;"/>
            </g>
        </g>
        <g transform="matrix(4.16667,0,0,4.16667,9000,5062.5)">
            <g transform="matrix(1,0,0,1,1550.96,811.457)">
                <path d="M0,-10.662L-6.097,-10.662L-6.097,-19.198L0,-19.198L0,-29.146L10.114,-29.146L10.114,-19.198L18.579,-19.198L18.579,-10.662L10.114,-10.662L10.114,6.29C10.114,8.872 11.119,9.948 13.773,9.948L18.794,9.948L18.794,18.484L10.544,18.484C3.515,18.484 0,14.969 0,7.94L0,-10.662Z" style="fill:rgb(245,245,245);fill-rule:nonzero;"/>
            </g>
        </g>
    </g>
    <defs>
        <linearGradient id="_Linear1" x1="0" y1="0" x2="1" y2="0" gradientUnits="userSpaceOnUse" gradientTransform="matrix(1,0,0,-1,0,2.40524e-07)"><stop offset="0" style="stop-color:rgb(0,20,192);stop-opacity:1"/><stop offset="1" style="stop-color:rgb(127,22,249);stop-opacity:1"/></linearGradient>
    </defs>
</svg>
